OxygenSans-Regular.ufo-OLD.ufo
<glyph name="exclam" format="1">
  <advance width="581"/>
  <unicode hex="0021"/>
  <outline>
    <contour>
      <point x="261" y="429" type="line"/>
      <point x="327" y="429" type="line"/>
      <point x="379" y="1335" type="line"/>
      <point x="379" y="1457" type="line"/>
      <point x="203" y="1457" type="line"/>
      <point x="203" y="1335" type="line"/>
    </contour>
    <contour>
      <point x="295" y="-13" type="curve" smooth="yes"/>
      <point x="375" y="-13"/>
      <point x="410" y="45"/>
      <point x="410" y="105" type="curve" smooth="yes"/>
      <point x="410" y="162"/>
      <point x="375" y="222"/>
      <point x="295" y="222" type="curve" smooth="yes"/>
      <point x="215" y="222"/>
      <point x="180" y="162"/>
      <point x="180" y="105" type="curve" smooth="yes"/>
      <point x="180" y="47"/>
      <point x="215" y="-13"/>
    </contour>
  </outline>
</glyph>
<glyph name="parenright" format="1">
  <advance width="687"/>
  <unicode hex="0029"/>
  <outline>
    <contour>
      <point x="111" y="-229" type="curve"/>
      <point x="266" y="-229" type="line"/>
      <point x="426" y="-4"/>
      <point x="525" y="354"/>
      <point x="525" y="716" type="curve" smooth="yes"/>
      <point x="525" y="1045"/>
      <point x="435" y="1337"/>
      <point x="267" y="1590" type="curve"/>
      <point x="110" y="1590" type="line"/>
      <point x="298" y="1284"/>
      <point x="363" y="1021"/>
      <point x="363" y="718" type="curve" smooth="yes"/>
      <point x="363" y="386"/>
      <point x="284" y="41"/>
    </contour>
  </outline>
</glyph>
<glyph name="period" format="1">
  <advance width="634"/>
  <unicode hex="002E"/>
  <outline>
    <contour>
      <point x="308" y="-11" type="curve" smooth="yes"/>
      <point x="386" y="-11"/>
      <point x="420" y="47"/>
      <point x="420" y="106" type="curve" smooth="yes"/>
      <point x="420" y="163"/>
      <point x="386" y="223"/>
      <point x="308" y="223" type="curve" smooth="yes"/>
      <point x="229" y="223"/>
      <point x="193" y="163"/>
      <point x="193" y="106" type="curve" smooth="yes"/>
      <point x="193" y="47"/>
      <point x="230" y="-11"/>
    </contour>
    <contour>
      <point x="301" y="102.775" type="move" name="_mid"/>
    </contour>
  </outline>
</glyph>
<glyph name="one" format="1">
  <advance width="1057"/>
  <unicode hex="0031"/>
  <outline>
    <contour>
      <point x="110" y="0" type="line"/>
      <point x="942" y="0" type="line"/>
      <point x="942" y="123" type="line"/>
      <point x="575" y="123" type="line"/>
      <point x="628" y="59" type="line"/>
      <point x="628" y="1456" type="line"/>
      <point x="475" y="1456" type="line"/>
      <point x="399" y="1402"/>
      <point x="224" y="1347"/>
      <point x="141" y="1329" type="curve"/>
      <point x="141" y="1194" type="line"/>
      <point x="224" y="1205"/>
      <point x="399" y="1256"/>
      <point x="499" y="1325" type="curve"/>
      <point x="462" y="1357" type="line"/>
      <point x="462" y="67" type="line"/>
      <point x="512" y="123" type="line"/>
      <point x="110" y="123" type="line"/>
    </contour>
  </outline>
</glyph>
<glyph name="D" format="1">
  <advance width="1374"/>
  <unicode hex="0044"/>
  <outline>
    <contour>
      <point x="311" y="85" type="line"/>
      <point x="311" y="1377" type="line"/>
      <point x="271" y="1318" type="line"/>
      <point x="902" y="1373"/>
      <point x="1087" y="1213"/>
      <point x="1087" y="739" type="curve" smooth="yes"/>
      <point x="1087" y="326"/>
      <point x="917" y="89"/>
      <point x="271" y="147" type="curve"/>
    </contour>
    <contour>
      <point x="135" y="11" type="line"/>
      <point x="1046" y="-66"/>
      <point x="1263" y="230"/>
      <point x="1263" y="744" type="curve" smooth="yes"/>
      <point x="1263" y="1251"/>
      <point x="1065" y="1541"/>
      <point x="135" y="1434" type="curve"/>
    </contour>
    <contour>
      <point x="708" y="-0.744995363679" type="move" name="bot"/>
    </contour>
    <contour>
      <point x="664" y="1456" type="move" name="top"/>
    </contour>
    <contour>
      <point x="224" y="769.030004636" type="move" name="mid"/>
    </contour>
  </outline>
</glyph>
<glyph name="F" format="1">
  <advance width="1162"/>
  <unicode hex="0046"/>
  <outline>
    <contour>
      <point x="142" y="0" type="line"/>
      <point x="318" y="0" type="line"/>
      <point x="318" y="718" type="line"/>
      <point x="236" y="666" type="line"/>
      <point x="1000" y="666" type="line"/>
      <point x="1000" y="797" type="line"/>
      <point x="243" y="797" type="line"/>
      <point x="318" y="748" type="line"/>
      <point x="318" y="1385" type="line"/>
      <point x="243" y="1318" type="line"/>
      <point x="1095" y="1318" type="line"/>
      <point x="1105" y="1456" type="line"/>
      <point x="142" y="1456" type="line"/>
    </contour>
    <contour>
      <point x="675" y="1456" type="move" name="top"/>
    </contour>
  </outline>
</glyph>
<glyph name="N" format="1">
  <advance width="1374"/>
  <unicode hex="004E"/>
  <outline>
    <contour>
      <point x="148" y="0" type="line"/>
      <point x="311" y="0" type="line"/>
      <point x="311" y="761" type="line"/>
      <point x="292" y="1312" type="line"/>
      <point x="250" y="1298" type="line"/>
      <point x="1068" y="0" type="line"/>
      <point x="1249" y="0" type="line"/>
      <point x="1249" y="1456" type="line"/>
      <point x="1087" y="1456" type="line"/>
      <point x="1087" y="644" type="line"/>
      <point x="1099" y="145" type="line"/>
      <point x="1134" y="160" type="line"/>
      <point x="322" y="1456" type="line"/>
      <point x="148" y="1456" type="line"/>
    </contour>
    <contour>
      <point x="733" y="1456" type="move" name="top"/>
    </contour>
  </outline>
</glyph>
<glyph name="T" format="1">
  <advance width="1268"/>
  <unicode hex="0054"/>
  <outline>
    <contour>
      <point x="714" y="0" type="line"/>
      <point x="890" y="0" type="line"/>
      <point x="890" y="1387" type="line"/>
      <point x="831" y="1319" type="line"/>
      <point x="1369" y="1319" type="line"/>
      <point x="1369" y="1456" type="line"/>
      <point x="237" y="1456" type="line"/>
      <point x="237" y="1319" type="line"/>
      <point x="768" y="1319" type="line"/>
      <point x="714" y="1384" type="line"/>
    </contour>
    <contour>
      <point x="807" y="0.0" type="move" name="bot"/>
    </contour>
    <contour>
      <point x="806" y="1456" type="move" name="top"/>
    </contour>
    <contour>
      <point x="799" y="785.15" type="move" name="mid"/>
    </contour>
  </outline>
</glyph>
<glyph name="X" format="1">
  <advance width="1162"/>
  <unicode hex="0058"/>
  <outline>
    <contour>
      <point x="-4" y="0.0" type="line"/>
      <point x="180" y="0.0" type="line"/>
      <point x="582" y="604.0" type="line"/>
      <point x="668" y="710.0" type="line"/>
      <point x="1159" y="1456.0" type="line"/>
      <point x="971" y="1456.0" type="line"/>
      <point x="580" y="853.0" type="line"/>
      <point x="490" y="750.0" type="line"/>
    </contour>
    <contour>
      <point x="967" y="0.0" type="line"/>
      <point x="1166" y="0.0" type="line"/>
      <point x="197" y="1456.0" type="line"/>
      <point x="-3" y="1456.0" type="line"/>
    </contour>
  </outline>
</glyph>
<glyph name="grave" format="1">
  <advance width="792"/>
  <unicode hex="0060"/>
  <outline>
    <contour>
      <point x="507" y="1044" type="line"/>
      <point x="601" y="1044" type="line"/>
      <point x="425" y="1456" type="line"/>
      <point x="237" y="1456" type="line"/>
    </contour>
    <contour>
      <point x="563" y="945" type="move" name="_top"/>
    </contour>
  </outline>
</glyph>
<glyph name="d" format="1">
  <advance width="1162"/>
  <unicode hex="0064"/>
  <outline>
    <contour>
      <point x="541" y="-20" type="curve" smooth="yes"/>
      <point x="735" y="-20"/>
      <point x="816" y="82"/>
      <point x="881" y="247" type="curve"/>
      <point x="856" y="256" type="line"/>
      <point x="876" y="0" type="line"/>
      <point x="1012" y="0" type="line"/>
      <point x="1012" y="1560" type="line"/>
      <point x="848" y="1548" type="line"/>
      <point x="848" y="1160" type="line"/>
      <point x="858" y="837" type="line"/>
      <point x="876" y="867" type="line"/>
      <point x="816" y="990"/>
      <point x="755" y="1106"/>
      <point x="540" y="1106" type="curve" smooth="yes"/>
      <point x="257" y="1106"/>
      <point x="97" y="879"/>
      <point x="97" y="551" type="curve" smooth="yes"/>
      <point x="97" y="208"/>
      <point x="244" y="-20"/>
    </contour>
    <contour>
      <point x="555" y="109" type="curve" smooth="yes"/>
      <point x="339" y="109"/>
      <point x="265" y="290"/>
      <point x="265" y="548" type="curve" smooth="yes"/>
      <point x="265" y="817"/>
      <point x="354" y="980"/>
      <point x="564" y="980" type="curve" smooth="yes"/>
      <point x="763" y="980"/>
      <point x="855" y="826"/>
      <point x="855" y="531" type="curve" smooth="yes"/>
      <point x="854" y="278"/>
      <point x="784" y="109"/>
    </contour>
    <contour>
      <point x="924" y="1334" type="move" name="mid"/>
    </contour>
  </outline>
</glyph>
<glyph name="l" format="1">
  <advance width="581"/>
  <unicode hex="006C"/>
  <outline>
    <contour>
      <point x="433" y="-8" type="curve" smooth="yes"/>
      <point x="490" y="-8" type="line"/>
      <point x="504" y="114" type="line"/>
      <point x="472" y="116" type="line" smooth="yes"/>
      <point x="347" y="125"/>
      <point x="325" y="138"/>
      <point x="325" y="310" type="curve" smooth="yes"/>
      <point x="325" y="1560" type="line"/>
      <point x="161" y="1548" type="line"/>
      <point x="161" y="305" type="line" smooth="yes"/>
      <point x="161" y="39"/>
      <point x="252" y="-8"/>
    </contour>
    <contour>
      <point x="327" y="0.2" type="move" name="bot"/>
    </contour>
    <contour>
      <point x="621" y="1083.625" type="move" name="mid"/>
    </contour>
    <contour>
      <point x="335" y="1496.7" type="move" name="top"/>
    </contour>
    <contour>
      <point x="241" y="918.6" type="move" name="mid2"/>
    </contour>
  </outline>
</glyph>
<glyph name="yen" format="1">
  <advance width="1004"/>
  <unicode hex="00A5"/>
  <outline>
    <contour>
      <point x="913" y="291" type="line"/>
      <point x="913" y="398" type="line"/>
      <point x="550" y="398" type="line"/>
      <point x="550" y="589" type="line"/>
      <point x="912" y="589" type="line"/>
      <point x="912" y="696" type="line"/>
      <point x="106" y="696" type="line"/>
      <point x="106" y="589" type="line"/>
      <point x="486" y="589" type="line"/>
      <point x="486" y="398" type="line"/>
      <point x="104" y="398" type="line"/>
      <point x="104" y="291" type="line"/>
    </contour>
    <component base="Y"/>
  </outline>
</glyph>
<glyph name="copyright" format="1">
  <advance width="1638"/>
  <unicode hex="00A9"/>
  <outline>
    <contour>
      <point x="734" y="-20" type="curve" smooth="yes"/>
      <point x="1116" y="-20"/>
      <point x="1500" y="236"/>
      <point x="1500" y="727" type="curve" smooth="yes"/>
      <point x="1500" y="1220"/>
      <point x="1115" y="1476"/>
      <point x="734" y="1476" type="curve" smooth="yes"/>
      <point x="356" y="1476"/>
      <point x="-23" y="1220"/>
      <point x="-23" y="727" type="curve" smooth="yes"/>
      <point x="-23" y="236"/>
      <point x="356" y="-20"/>
    </contour>
    <contour>
      <point x="734" y="64" type="curve" smooth="yes"/>
      <point x="400" y="64"/>
      <point x="79" y="295"/>
      <point x="79" y="727" type="curve" smooth="yes"/>
      <point x="79" y="1160"/>
      <point x="400" y="1389"/>
      <point x="734" y="1389" type="curve" smooth="yes"/>
      <point x="1070" y="1389"/>
      <point x="1394" y="1160"/>
      <point x="1394" y="727" type="curve" smooth="yes"/>
      <point x="1394" y="296"/>
      <point x="1070" y="64"/>
    </contour>
    <contour>
      <point x="754" y="234" type="curve" smooth="yes"/>
      <point x="854" y="234"/>
      <point x="951" y="261"/>
      <point x="1037" y="316" type="curve"/>
      <point x="1003" y="400" type="line"/>
      <point x="917" y="347"/>
      <point x="838" y="329"/>
      <point x="758" y="329" type="curve" smooth="yes"/>
      <point x="557" y="329"/>
      <point x="398" y="483"/>
      <point x="398" y="729" type="curve" smooth="yes"/>
      <point x="398" y="958"/>
      <point x="556" y="1119"/>
      <point x="750" y="1119" type="curve" smooth="yes"/>
      <point x="823" y="1119"/>
      <point x="917" y="1094"/>
      <point x="991" y="1041" type="curve"/>
      <point x="1034" y="1127" type="line"/>
      <point x="946" y="1186"/>
      <point x="848" y="1215"/>
      <point x="746" y="1215" type="curve" smooth="yes"/>
      <point x="489" y="1215"/>
      <point x="276" y="1005"/>
      <point x="276" y="725" type="curve" smooth="yes"/>
      <point x="276" y="436"/>
      <point x="495" y="234"/>
    </contour>
  </outline>
</glyph>
<glyph name="uni00B3" format="1">
  <advance width="792"/>
  <unicode hex="00B3"/>
  <outline>
    <contour>
      <point x="398" y="615" type="curve" smooth="yes"/>
      <point x="543" y="615"/>
      <point x="659" y="712"/>
      <point x="659" y="873" type="curve" smooth="yes"/>
      <point x="659" y="973"/>
      <point x="601" y="1053"/>
      <point x="496" y="1084" type="curve"/>
      <point x="602" y="1111"/>
      <point x="640" y="1198"/>
      <point x="640" y="1262" type="curve" smooth="yes"/>
      <point x="640" y="1419"/>
      <point x="518" y="1496"/>
      <point x="393" y="1496" type="curve" smooth="yes"/>
      <point x="306" y="1496"/>
      <point x="191" y="1461"/>
      <point x="135" y="1399" type="curve"/>
      <point x="189" y="1310" type="line"/>
      <point x="229" y="1351"/>
      <point x="321" y="1381"/>
      <point x="388" y="1381" type="curve" smooth="yes"/>
      <point x="458" y="1381"/>
      <point x="509" y="1342"/>
      <point x="509" y="1260" type="curve" smooth="yes"/>
      <point x="509" y="1177"/>
      <point x="432" y="1135"/>
      <point x="332" y="1135" type="curve" smooth="yes"/>
      <point x="261" y="1135" type="line"/>
      <point x="261" y="1019" type="line"/>
      <point x="335" y="1019" type="line" smooth="yes"/>
      <point x="445" y="1019"/>
      <point x="528" y="972"/>
      <point x="528" y="877" type="curve" smooth="yes"/>
      <point x="528" y="778"/>
      <point x="465" y="731"/>
      <point x="386" y="731" type="curve" smooth="yes"/>
      <point x="324" y="731"/>
      <point x="235" y="757"/>
      <point x="186" y="803" type="curve"/>
      <point x="137" y="704" type="line"/>
      <point x="197" y="641"/>
      <point x="316" y="615"/>
    </contour>
  </outline>
</glyph>
<glyph name="acute" format="1">
  <advance width="687"/>
  <unicode hex="00B4"/>
  <unicode hex="0301"/>
  <outline>
    <contour>
      <point x="174" y="1044" type="line"/>
      <point x="271" y="1044" type="line"/>
      <point x="563" y="1456" type="line"/>
      <point x="357" y="1456" type="line"/>
    </contour>
    <contour>
      <point x="217" y="945.25" type="move" name="_top"/>
    </contour>
  </outline>
</glyph>
<glyph name="onehalf" format="1">
  <advance width="1532"/>
  <unicode hex="00BD"/>
  <outline>
    <contour>
      <point x="-19" y="593.0" type="line"/>
      <point x="410" y="593.0" type="line"/>
      <point x="410" y="705.0" type="line"/>
      <point x="271" y="705.0" type="line"/>
      <point x="271" y="1476.0" type="line"/>
      <point x="161" y="1476.0" type="line"/>
      <point x="119" y="1437.0"/>
      <point x="5" y="1386.0"/>
      <point x="-29" y="1373.0" type="curve"/>
      <point x="-29" y="1259.0" type="line"/>
      <point x="3" y="1272.0"/>
      <point x="96" y="1309.0"/>
      <point x="133" y="1333.0" type="curve"/>
      <point x="133" y="705.0" type="line"/>
      <point x="-19" y="705.0" type="line"/>
    </contour>
    <contour>
      <point x="224" y="0.0" type="line"/>
      <point x="356" y="0.0" type="line"/>
      <point x="1263" y="1476.0" type="line"/>
      <point x="1132" y="1476.0" type="line"/>
    </contour>
    <contour>
      <point x="991" y="0" type="line"/>
      <point x="1512" y="0" type="line"/>
      <point x="1518" y="114" type="line"/>
      <point x="1168" y="114" type="line"/>
      <point x="1339" y="281" type="line" smooth="yes"/>
      <point x="1463" y="402"/>
      <point x="1526" y="474"/>
      <point x="1526" y="615" type="curve" smooth="yes"/>
      <point x="1526" y="782"/>
      <point x="1395" y="871"/>
      <point x="1243" y="871" type="curve" smooth="yes"/>
      <point x="1128" y="871"/>
      <point x="1003" y="812"/>
      <point x="950" y="716" type="curve"/>
      <point x="1022" y="637" type="line"/>
      <point x="1080" y="716"/>
      <point x="1163" y="751"/>
      <point x="1241" y="751" type="curve" smooth="yes"/>
      <point x="1323" y="751"/>
      <point x="1394" y="705"/>
      <point x="1394" y="607" type="curve" smooth="yes"/>
      <point x="1394" y="536"/>
      <point x="1354" y="474"/>
      <point x="1239" y="358" type="curve" smooth="yes"/>
      <point x="991" y="110" type="line"/>
    </contour>
  </outline>
</glyph>
<glyph name="threequarters" format="1">
  <advance width="1374"/>
  <unicode hex="00BE"/>
  <outline>
    <contour>
      <point x="109" y="0.0" type="line"/>
      <point x="241" y="0.0" type="line"/>
      <point x="1148" y="1476.0" type="line"/>
      <point x="1017" y="1476.0" type="line"/>
    </contour>
    <contour>
      <point x="1096" y="0.0" type="line"/>
      <point x="1223" y="0.0" type="line"/>
      <point x="1223" y="191.0" type="line"/>
      <point x="1345" y="191.0" type="line"/>
      <point x="1337" y="297.0" type="line"/>
      <point x="1224" y="297.0" type="line"/>
      <point x="1224" y="857.0" type="line"/>
      <point x="1086" y="857.0" type="line"/>
      <point x="691" y="284.0" type="line"/>
      <point x="691" y="191.0" type="line"/>
      <point x="1096" y="191.0" type="line"/>
    </contour>
    <contour>
      <point x="830" y="297.0" type="line"/>
      <point x="1095" y="690.0" type="line"/>
      <point x="1095" y="297.0" type="line"/>
    </contour>
    <contour>
      <point x="145" y="684" type="curve" smooth="yes"/>
      <point x="278" y="684"/>
      <point x="384" y="772"/>
      <point x="384" y="917" type="curve" smooth="yes"/>
      <point x="384" y="1006"/>
      <point x="330" y="1078"/>
      <point x="235" y="1107" type="curve"/>
      <point x="331" y="1130"/>
      <point x="366" y="1209"/>
      <point x="366" y="1266" type="curve" smooth="yes"/>
      <point x="366" y="1407"/>
      <point x="255" y="1477"/>
      <point x="141" y="1477" type="curve" smooth="yes"/>
      <point x="61" y="1477"/>
      <point x="-42" y="1445"/>
      <point x="-93" y="1389" type="curve"/>
      <point x="-43" y="1309" type="line"/>
      <point x="-7" y="1346"/>
      <point x="75" y="1373"/>
      <point x="136" y="1373" type="curve" smooth="yes"/>
      <point x="200" y="1373"/>
      <point x="246" y="1338"/>
      <point x="246" y="1264" type="curve" smooth="yes"/>
      <point x="246" y="1189"/>
      <point x="176" y="1151"/>
      <point x="84" y="1151" type="curve" smooth="yes"/>
      <point x="20" y="1151" type="line"/>
      <point x="20" y="1047" type="line"/>
      <point x="87" y="1047" type="line" smooth="yes"/>
      <point x="188" y="1047"/>
      <point x="264" y="1005"/>
      <point x="264" y="921" type="curve" smooth="yes"/>
      <point x="264" y="830"/>
      <point x="206" y="789"/>
      <point x="134" y="789" type="curve" smooth="yes"/>
      <point x="78" y="789"/>
      <point x="-2" y="813"/>
      <point x="-46" y="853" type="curve"/>
      <point x="-91" y="765" type="line"/>
      <point x="-36" y="708"/>
      <point x="70" y="684"/>
    </contour>
  </outline>
</glyph>
<glyph name="eth" format="1">
  <advance width="1162"/>
  <unicode hex="00F0"/>
  <outline>
    <contour>
      <point x="592" y="109" type="curve" smooth="yes"/>
      <point x="361" y="109"/>
      <point x="250" y="295"/>
      <point x="250" y="489" type="curve" smooth="yes"/>
      <point x="250" y="697"/>
      <point x="374" y="854"/>
      <point x="586" y="854" type="curve" smooth="yes"/>
      <point x="810" y="854"/>
      <point x="933" y="681"/>
      <point x="933" y="499" type="curve" smooth="yes"/>
      <point x="933" y="263"/>
      <point x="817" y="109"/>
    </contour>
    <contour>
      <point x="586" y="-20" type="curve" smooth="yes"/>
      <point x="918" y="-20"/>
      <point x="1081" y="203"/>
      <point x="1081" y="492" type="curve" smooth="yes"/>
      <point x="1081" y="630"/>
      <point x="1047" y="771"/>
      <point x="996" y="872" type="curve" smooth="yes"/>
      <point x="930" y="1001"/>
      <point x="831" y="1132"/>
      <point x="639" y="1340" type="curve"/>
      <point x="892" y="1437" type="line"/>
      <point x="844" y="1544" type="line"/>
      <point x="555" y="1432" type="line"/>
      <point x="400" y="1587" type="line"/>
      <point x="215" y="1587" type="line"/>
      <point x="431" y="1382" type="line"/>
      <point x="207" y="1294" type="line"/>
      <point x="254" y="1184" type="line"/>
      <point x="510" y="1285" type="line"/>
      <point x="692" y="1104"/>
      <point x="792" y="970"/>
      <point x="845" y="870" type="curve"/>
      <point x="785" y="916"/>
      <point x="719" y="977"/>
      <point x="571" y="977" type="curve" smooth="yes"/>
      <point x="291" y="977"/>
      <point x="91" y="782"/>
      <point x="91" y="490" type="curve" smooth="yes"/>
      <point x="91" y="222"/>
      <point x="262" y="-20"/>
    </contour>
  </outline>
</glyph>
<glyph name="divide" format="1">
  <advance width="1162"/>
  <unicode hex="00F7"/>
  <outline>
    <contour>
      <point x="472" y="892" type="line"/>
      <point x="665" y="892" type="line"/>
      <point x="665" y="1094" type="line"/>
      <point x="472" y="1094" type="line"/>
    </contour>
    <contour>
      <point x="91" y="507" type="line"/>
      <point x="1042" y="507" type="line"/>
      <point x="1042" y="645" type="line"/>
      <point x="91" y="645" type="line"/>
    </contour>
    <contour>
      <point x="472" y="32" type="line"/>
      <point x="663" y="32" type="line"/>
      <point x="663" y="238" type="line"/>
      <point x="472" y="238" type="line"/>
    </contour>
  </outline>
</glyph>
<glyph name="oslash" format="1">
  <advance width="1057"/>
  <unicode hex="00F8"/>
  <outline>
    <contour>
      <point x="169" y="-162" type="line"/>
      <point x="894" y="1200" type="line"/>
      <point x="823" y="1238" type="line"/>
      <point x="104" y="-124" type="line"/>
    </contour>
    <component base="o"/>
  </outline>
</glyph>
<glyph name="ogonek" format="1">
  <advance width="739"/>
  <unicode hex="02DB"/>
  <outline>
    <contour>
      <point x="570" y="-380" type="curve"/>
      <point x="568" y="-277" type="line"/>
      <point x="549" y="-285"/>
      <point x="502" y="-301"/>
      <point x="460" y="-301" type="curve" smooth="yes"/>
      <point x="415" y="-301"/>
      <point x="377" y="-278"/>
      <point x="377" y="-220" type="curve" smooth="yes"/>
      <point x="377" y="-142"/>
      <point x="464" y="-29"/>
      <point x="523" y="14" type="curve"/>
      <point x="443" y="14" type="line"/>
      <point x="339" y="-28"/>
      <point x="237" y="-146"/>
      <point x="237" y="-260" type="curve" smooth="yes"/>
      <point x="237" y="-351"/>
      <point x="301" y="-410"/>
      <point x="426" y="-410" type="curve" smooth="yes"/>
      <point x="475" y="-410"/>
      <point x="538" y="-396"/>
    </contour>
    <contour>
      <point x="478" y="10.25" type="move" name="_ogonek"/>
    </contour>
  </outline>
</glyph>
<glyph name="hungarumlaut" format="1">
  <advance width="845"/>
  <unicode hex="02DD"/>
  <outline>
    <contour>
      <point x="442" y="1058" type="line"/>
      <point x="528" y="1058" type="line"/>
      <point x="811" y="1470" type="line"/>
      <point x="623" y="1470" type="line"/>
    </contour>
    <contour>
      <point x="186" y="1058" type="line"/>
      <point x="270" y="1058" type="line"/>
      <point x="512" y="1470" type="line"/>
      <point x="336" y="1470" type="line"/>
    </contour>
    <contour>
      <point x="340" y="945.25" type="move" name="_top"/>
    </contour>
  </outline>
</glyph>
<glyph name="acutecomb" format="1">
  <advance width="687"/>
  <unicode hex="0301"/>
  <outline>
    <contour>
      <point x="180" y="1058" type="line"/>
      <point x="277" y="1058" type="line"/>
      <point x="569" y="1470" type="line"/>
      <point x="363" y="1470" type="line"/>
    </contour>
    <contour>
      <point x="236" y="1006.75" type="move" name="_top"/>
    </contour>
  </outline>
</glyph>
<glyph name="uni030C" format="1">
  <advance width="845"/>
  <unicode hex="030C"/>
  <outline>
    <contour>
      <point x="772" y="1469" type="line"/>
      <point x="661" y="1469" type="line"/>
      <point x="503" y="1188" type="line"/>
      <point x="349" y="1469" type="line"/>
      <point x="237" y="1469" type="line"/>
      <point x="405" y="1087" type="line"/>
      <point x="592" y="1087" type="line"/>
    </contour>
    <contour>
      <point x="503" y="1006.025" type="move" name="_top"/>
    </contour>
  </outline>
</glyph>
<glyph name="uni031B" format="1">
  <advance width="634"/>
  <unicode hex="031B"/>
  <outline>
    <contour>
      <point x="336" y="502" type="line"/>
      <point x="344" y="481"/>
      <point x="350" y="448"/>
      <point x="350" y="414" type="curve" smooth="yes"/>
      <point x="350" y="341"/>
      <point x="324" y="247"/>
      <point x="215" y="247" type="curve" smooth="yes"/>
      <point x="209" y="247"/>
      <point x="200" y="247"/>
      <point x="193" y="248" type="curve"/>
      <point x="193" y="165" type="line"/>
      <point x="214" y="162"/>
      <point x="234" y="160"/>
      <point x="253" y="160" type="curve" smooth="yes"/>
      <point x="412" y="160"/>
      <point x="455" y="269"/>
      <point x="455" y="368" type="curve" smooth="yes"/>
      <point x="455" y="419"/>
      <point x="443" y="470"/>
      <point x="429" y="502" type="curve"/>
    </contour>
    <contour>
      <point x="197" y="206.125" type="move" name="_hook"/>
    </contour>
  </outline>
</glyph>
<glyph name="afii10029" format="1">
  <advance width="1426"/>
  <unicode hex="041B"/>
  <outline>
    <contour>
      <point x="-99" y="-23" type="line"/>
      <point x="-22" y="-23" type="line" smooth="yes"/>
      <point x="293" y="-23"/>
      <point x="381" y="130"/>
      <point x="381" y="437" type="curve" smooth="yes"/>
      <point x="381" y="1339" type="line"/>
      <point x="1100" y="1339" type="line"/>
      <point x="1100" y="0" type="line"/>
      <point x="1275" y="0" type="line"/>
      <point x="1276" y="1470" type="line"/>
      <point x="205" y="1471" type="line"/>
      <point x="205" y="412" type="line" smooth="yes"/>
      <point x="205" y="214"/>
      <point x="167" y="123"/>
      <point x="-34" y="123" type="curve" smooth="yes"/>
      <point x="-99" y="123" type="line"/>
    </contour>
  </outline>
</glyph>
<glyph name="afii10045" format="1">
  <advance width="1638"/>
  <unicode hex="042B"/>
  <outline>
    <contour>
      <point x="148" y="0" type="line"/>
      <point x="148" y="1484" type="line"/>
      <point x="270" y="1484" type="line"/>
      <point x="270" y="840" type="line"/>
      <point x="615" y="840" type="line" smooth="yes"/>
      <point x="1009" y="840"/>
      <point x="1093" y="645"/>
      <point x="1093" y="426" type="curve" smooth="yes"/>
      <point x="1093" y="198"/>
      <point x="1018" y="0"/>
      <point x="622" y="0" type="curve" smooth="yes"/>
    </contour>
    <contour>
      <point x="1346" y="0" type="line"/>
      <point x="1346" y="1485" type="line"/>
      <point x="1468" y="1485" type="line"/>
      <point x="1468" y="0" type="line"/>
    </contour>
    <contour>
      <point x="270" y="743" type="line"/>
      <point x="270" y="96" type="line"/>
      <point x="628" y="96" type="line" smooth="yes"/>
      <point x="878" y="96"/>
      <point x="971" y="194"/>
      <point x="971" y="422" type="curve" smooth="yes"/>
      <point x="971" y="655"/>
      <point x="886" y="743"/>
      <point x="614" y="743" type="curve" smooth="yes"/>
    </contour>
  </outline>
</glyph>
<glyph name="afii10084" format="1">
  <advance width="1004"/>
  <unicode hex="0442"/>
  <outline>
    <contour>
      <point x="422" y="0" type="line"/>
      <point x="422" y="978" type="line"/>
      <point x="123" y="978" type="line"/>
      <point x="123" y="1081" type="line"/>
      <point x="862" y="1081" type="line"/>
      <point x="862" y="978" type="line"/>
      <point x="558" y="978" type="line"/>
      <point x="558" y="0" type="line"/>
    </contour>
  </outline>
</glyph>
<glyph name="afii10085" format="1">
  <advance width="1057"/>
  <unicode hex="0443"/>
  <outline>
    <contour>
      <point x="192" y="-304" type="curve"/>
      <point x="192" y="-200" type="line"/>
      <point x="482" y="-200"/>
      <point x="525" y="-182"/>
      <point x="525" y="21" type="curve" smooth="yes"/>
      <point x="525" y="36" type="line" smooth="yes"/>
      <point x="524" y="158" type="line"/>
      <point x="59" y="1089" type="line"/>
      <point x="183" y="1089" type="line"/>
      <point x="571" y="299" type="line"/>
      <point x="887" y="1089" type="line"/>
      <point x="1007" y="1089" type="line"/>
      <point x="636" y="159" type="line"/>
      <point x="637" y="34" type="line" smooth="yes"/>
      <point x="637" y="9" type="line" smooth="yes"/>
      <point x="637" y="-248"/>
      <point x="588" y="-304"/>
    </contour>
  </outline>
</glyph>
<glyph name="afii10092" format="1">
  <advance width="1004"/>
  <unicode hex="044A"/>
  <outline>
    <contour>
      <point x="314" y="87" type="line"/>
      <point x="532" y="87" type="line" smooth="yes"/>
      <point x="687" y="87"/>
      <point x="729" y="248"/>
      <point x="729" y="358" type="curve" smooth="yes"/>
      <point x="729" y="474"/>
      <point x="674" y="592"/>
      <point x="525" y="592" type="curve" smooth="yes"/>
      <point x="314" y="592" type="line"/>
    </contour>
    <contour>
      <point x="186" y="0" type="line"/>
      <point x="186" y="1006" type="line"/>
      <point x="40" y="1006" type="line"/>
      <point x="40" y="1084" type="line"/>
      <point x="315" y="1084" type="line"/>
      <point x="315" y="688" type="line"/>
      <point x="515" y="688" type="line" smooth="yes"/>
      <point x="817" y="688"/>
      <point x="874" y="502"/>
      <point x="874" y="356" type="curve" smooth="yes"/>
      <point x="874" y="199"/>
      <point x="806" y="0"/>
      <point x="517" y="0" type="curve" smooth="yes"/>
    </contour>
  </outline>
</glyph>
<glyph name="afii10094" format="1">
  <advance width="1057"/>
  <unicode hex="044C"/>
  <outline>
    <contour>
      <point x="288" y="87" type="line"/>
      <point x="548" y="87" type="line" smooth="yes"/>
      <point x="704" y="87"/>
      <point x="793" y="170"/>
      <point x="793" y="356" type="curve" smooth="yes"/>
      <point x="793" y="516"/>
      <point x="702" y="590"/>
      <point x="551" y="590" type="curve" smooth="yes"/>
      <point x="288" y="590" type="line"/>
    </contour>
    <contour>
      <point x="167" y="0" type="line"/>
      <point x="167" y="1084" type="line"/>
      <point x="289" y="1084" type="line"/>
      <point x="289" y="685" type="line"/>
      <point x="542" y="685" type="line" smooth="yes"/>
      <point x="845" y="685"/>
      <point x="909" y="499"/>
      <point x="909" y="354" type="curve" smooth="yes"/>
      <point x="909" y="197"/>
      <point x="844" y="0"/>
      <point x="544" y="0" type="curve" smooth="yes"/>
    </contour>
  </outline>
</glyph>
<glyph name="afii10099" format="1">
  <advance width="1162"/>
  <unicode hex="0452"/>
  <outline>
    <contour>
      <point x="652" y="-280" type="line"/>
      <point x="641" y="-149" type="line"/>
      <point x="677" y="-149" type="line" smooth="yes"/>
      <point x="854" y="-149"/>
      <point x="876" y="-113"/>
      <point x="876" y="104" type="curve" smooth="yes"/>
      <point x="876" y="371" type="line" smooth="yes"/>
      <point x="876" y="621"/>
      <point x="843" y="749"/>
      <point x="649" y="749" type="curve" smooth="yes"/>
      <point x="472" y="749"/>
      <point x="330" y="607"/>
      <point x="302" y="498" type="curve"/>
      <point x="302" y="7" type="line"/>
      <point x="152" y="7" type="line"/>
      <point x="152" y="1106" type="line"/>
      <point x="59" y="1106" type="line"/>
      <point x="59" y="1209" type="line"/>
      <point x="152" y="1209" type="line"/>
      <point x="152" y="1509" type="line"/>
      <point x="302" y="1509" type="line"/>
      <point x="302" y="1209" type="line"/>
      <point x="719" y="1209" type="line"/>
      <point x="719" y="1106" type="line"/>
      <point x="302" y="1106" type="line"/>
      <point x="302" y="695" type="line"/>
      <point x="393" y="816"/>
      <point x="510" y="888"/>
      <point x="664" y="888" type="curve" smooth="yes"/>
      <point x="914" y="888"/>
      <point x="1028" y="732"/>
      <point x="1028" y="445" type="curve" smooth="yes"/>
      <point x="1028" y="158" type="line" smooth="yes"/>
      <point x="1028" y="-150"/>
      <point x="1007" y="-280"/>
      <point x="718" y="-280" type="curve" smooth="yes"/>
    </contour>
  </outline>
</glyph>
<glyph name="afii10107" format="1">
  <advance width="1585"/>
  <unicode hex="045A"/>
  <outline>
    <contour>
      <point x="947" y="123" type="line"/>
      <point x="947" y="520" type="line"/>
      <point x="1177" y="520" type="line" smooth="yes"/>
      <point x="1327" y="520"/>
      <point x="1377" y="427"/>
      <point x="1377" y="323" type="curve" smooth="yes"/>
      <point x="1377" y="218"/>
      <point x="1325" y="123"/>
      <point x="1177" y="123" type="curve" smooth="yes"/>
    </contour>
    <contour>
      <point x="135" y="0" type="line"/>
      <point x="298" y="0" type="line"/>
      <point x="298" y="511" type="line"/>
      <point x="786" y="511" type="line"/>
      <point x="786" y="0" type="line"/>
      <point x="1181" y="0" type="line" smooth="yes"/>
      <point x="1410" y="0"/>
      <point x="1515" y="151"/>
      <point x="1515" y="320" type="curve" smooth="yes"/>
      <point x="1515" y="498"/>
      <point x="1418" y="639"/>
      <point x="1182" y="639" type="curve" smooth="yes"/>
      <point x="947" y="639" type="line"/>
      <point x="947" y="1084" type="line"/>
      <point x="786" y="1084" type="line"/>
      <point x="786" y="639" type="line"/>
      <point x="298" y="639" type="line"/>
      <point x="298" y="1084" type="line"/>
      <point x="135" y="1084" type="line"/>
    </contour>
  </outline>
</glyph>
<glyph name="quoteleft" format="1">
  <advance width="634"/>
  <unicode hex="2018"/>
  <outline>
    <contour>
      <point x="477" y="1473" type="line"/>
      <point x="362" y="1473" type="line"/>
      <point x="180" y="948" type="line"/>
      <point x="374" y="948" type="line"/>
    </contour>
    <contour>
      <point x="416" y="1544.55" type="move" name="_bot"/>
    </contour>
  </outline>
</glyph>
<glyph name="ellipsis" format="1">
  <advance width="1426"/>
  <unicode hex="2026"/>
  <outline>
    <contour>
      <point x="1196" y="-12" type="curve" smooth="yes"/>
      <point x="1110" y="-12"/>
      <point x="1066" y="55"/>
      <point x="1066" y="120" type="curve" smooth="yes"/>
      <point x="1066" y="186"/>
      <point x="1109" y="251"/>
      <point x="1196" y="251" type="curve" smooth="yes"/>
      <point x="1283" y="251"/>
      <point x="1326" y="186"/>
      <point x="1326" y="120" type="curve" smooth="yes"/>
      <point x="1326" y="55"/>
      <point x="1283" y="-12"/>
    </contour>
    <contour>
      <point x="715" y="-12" type="curve" smooth="yes"/>
      <point x="629" y="-12"/>
      <point x="586" y="55"/>
      <point x="586" y="120" type="curve" smooth="yes"/>
      <point x="586" y="186"/>
      <point x="628" y="251"/>
      <point x="715" y="251" type="curve" smooth="yes"/>
      <point x="802" y="251"/>
      <point x="845" y="186"/>
      <point x="845" y="120" type="curve" smooth="yes"/>
      <point x="845" y="55"/>
      <point x="802" y="-12"/>
    </contour>
    <contour>
      <point x="234" y="-12" type="curve" smooth="yes"/>
      <point x="148" y="-12"/>
      <point x="104" y="55"/>
      <point x="104" y="120" type="curve" smooth="yes"/>
      <point x="104" y="186"/>
      <point x="147" y="251"/>
      <point x="234" y="251" type="curve" smooth="yes"/>
      <point x="321" y="251"/>
      <point x="363" y="186"/>
      <point x="363" y="120" type="curve" smooth="yes"/>
      <point x="363" y="55"/>
      <point x="321" y="-12"/>
    </contour>
  </outline>
</glyph>
<glyph name="perthousand" format="1">
  <advance width="1849"/>
  <unicode hex="2030"/>
  <outline>
    <contour>
      <point x="1575" y="-29" type="curve" smooth="yes"/>
      <point x="1363" y="-29"/>
      <point x="1258" y="125"/>
      <point x="1258" y="354" type="curve" smooth="yes"/>
      <point x="1258" y="572"/>
      <point x="1364" y="735"/>
      <point x="1581" y="735" type="curve" smooth="yes"/>
      <point x="1795" y="735"/>
      <point x="1897" y="587"/>
      <point x="1897" y="351" type="curve" smooth="yes"/>
      <point x="1897" y="135"/>
      <point x="1790" y="-29"/>
    </contour>
    <contour>
      <point x="1581" y="94" type="curve" smooth="yes"/>
      <point x="1710" y="94"/>
      <point x="1775" y="215"/>
      <point x="1775" y="354" type="curve" smooth="yes"/>
      <point x="1775" y="497"/>
      <point x="1706" y="610"/>
      <point x="1578" y="610" type="curve" smooth="yes"/>
      <point x="1445" y="610"/>
      <point x="1382" y="493"/>
      <point x="1382" y="354" type="curve" smooth="yes"/>
      <point x="1382" y="208"/>
      <point x="1447" y="94"/>
    </contour>
    <contour>
      <point x="824" y="-29" type="curve" smooth="yes"/>
      <point x="610" y="-29"/>
      <point x="505" y="125"/>
      <point x="505" y="354" type="curve" smooth="yes"/>
      <point x="505" y="572"/>
      <point x="608" y="735"/>
      <point x="826" y="735" type="curve" smooth="yes"/>
      <point x="1044" y="735"/>
      <point x="1145" y="583"/>
      <point x="1145" y="351" type="curve" smooth="yes"/>
      <point x="1145" y="135"/>
      <point x="1039" y="-29"/>
    </contour>
    <contour>
      <point x="826" y="94" type="curve" smooth="yes"/>
      <point x="955" y="94"/>
      <point x="1020" y="217"/>
      <point x="1020" y="354" type="curve" smooth="yes"/>
      <point x="1020" y="500"/>
      <point x="959" y="610"/>
      <point x="825" y="610" type="curve" smooth="yes"/>
      <point x="696" y="610"/>
      <point x="633" y="493"/>
      <point x="633" y="354" type="curve" smooth="yes"/>
      <point x="633" y="208"/>
      <point x="697" y="94"/>
    </contour>
    <contour>
      <point x="1" y="-21" type="line"/>
      <point x="835" y="1545" type="line"/>
      <point x="988" y="1545" type="line"/>
      <point x="133" y="-21" type="line"/>
    </contour>
    <contour>
      <point x="142" y="795" type="curve" smooth="yes"/>
      <point x="-41" y="795"/>
      <point x="-144" y="949"/>
      <point x="-144" y="1178" type="curve" smooth="yes"/>
      <point x="-144" y="1397"/>
      <point x="-41" y="1557"/>
      <point x="144" y="1557" type="curve" smooth="yes"/>
      <point x="333" y="1557"/>
      <point x="432" y="1408"/>
      <point x="432" y="1174" type="curve" smooth="yes"/>
      <point x="432" y="958"/>
      <point x="326" y="795"/>
    </contour>
    <contour>
      <point x="146" y="918" type="curve" smooth="yes"/>
      <point x="254" y="918"/>
      <point x="307" y="1038"/>
      <point x="307" y="1176" type="curve" smooth="yes"/>
      <point x="307" y="1323"/>
      <point x="254" y="1437"/>
      <point x="142" y="1437" type="curve" smooth="yes"/>
      <point x="32" y="1437"/>
      <point x="-18" y="1317"/>
      <point x="-18" y="1178" type="curve" smooth="yes"/>
      <point x="-18" y="1032"/>
      <point x="33" y="918"/>
    </contour>
  </outline>
</glyph>
<glyph name="guilsinglleft" format="1">
  <advance width="739"/>
  <unicode hex="2039"/>
  <outline>
    <contour>
      <point x="593" y="1001" type="line"/>
      <point x="433" y="1001" type="line"/>
      <point x="135" y="570" type="line"/>
      <point x="428" y="148" type="line"/>
      <point x="587" y="148" type="line"/>
      <point x="308" y="569" type="line"/>
    </contour>
  </outline>
</glyph>
<glyph name="uni2074" format="1">
  <advance width="792"/>
  <unicode hex="2074"/>
  <outline>
    <contour>
      <point x="249" y="958" type="line"/>
      <point x="474" y="1344" type="line"/>
      <point x="473" y="958" type="line"/>
    </contour>
    <contour>
      <point x="473" y="649" type="line"/>
      <point x="561" y="649" type="line"/>
      <point x="560" y="856" type="line"/>
      <point x="661" y="856" type="line"/>
      <point x="653" y="958" type="line"/>
      <point x="563" y="958" type="line"/>
      <point x="563" y="1503" type="line"/>
      <point x="460" y="1503" type="line"/>
      <point x="155" y="948" type="line"/>
      <point x="155" y="856" type="line"/>
      <point x="473" y="856" type="line"/>
    </contour>
  </outline>
</glyph>
<glyph name="infinity" format="1">
  <advance width="1638"/>
  <unicode hex="221E"/>
  <outline>
    <contour>
      <point x="1213" y="374" type="curve" smooth="yes"/>
      <point x="1365" y="374"/>
      <point x="1437" y="499"/>
      <point x="1437" y="657" type="curve" smooth="yes"/>
      <point x="1437" y="781"/>
      <point x="1342" y="886"/>
      <point x="1209" y="886" type="curve" smooth="yes"/>
      <point x="1074" y="886"/>
      <point x="965" y="763"/>
      <point x="878" y="631" type="curve"/>
      <point x="998" y="463"/>
      <point x="1089" y="374"/>
    </contour>
    <contour>
      <point x="404" y="374" type="curve" smooth="yes"/>
      <point x="533" y="374"/>
      <point x="646" y="491"/>
      <point x="738" y="629" type="curve"/>
      <point x="647" y="776"/>
      <point x="537" y="886"/>
      <point x="397" y="886" type="curve" smooth="yes"/>
      <point x="253" y="886"/>
      <point x="164" y="769"/>
      <point x="164" y="631" type="curve" smooth="yes"/>
      <point x="164" y="502"/>
      <point x="260" y="374"/>
    </contour>
    <contour>
      <point x="402" y="247" type="curve" smooth="yes"/>
      <point x="181" y="247"/>
      <point x="53" y="434"/>
      <point x="53" y="652" type="curve" smooth="yes"/>
      <point x="53" y="851"/>
      <point x="206" y="1009"/>
      <point x="398" y="1009" type="curve" smooth="yes"/>
      <point x="565" y="1009"/>
      <point x="688" y="900"/>
      <point x="808" y="737" type="curve"/>
      <point x="920" y="895"/>
      <point x="1043" y="1009"/>
      <point x="1213" y="1009" type="curve" smooth="yes"/>
      <point x="1434" y="1009"/>
      <point x="1557" y="852"/>
      <point x="1557" y="634" type="curve" smooth="yes"/>
      <point x="1557" y="406"/>
      <point x="1405" y="247"/>
      <point x="1211" y="247" type="curve" smooth="yes"/>
      <point x="1063" y="247"/>
      <point x="941" y="336"/>
      <point x="808" y="518" type="curve"/>
      <point x="691" y="360"/>
      <point x="565" y="247"/>
    </contour>
  </outline>
</glyph>
<glyph name="onesuperior" format="1">
  <advance width="792"/>
  <outline>
    <contour>
      <point x="171" y="572" type="line"/>
      <point x="602" y="572" type="line"/>
      <point x="602" y="684" type="line"/>
      <point x="463" y="684" type="line"/>
      <point x="463" y="1456" type="line"/>
      <point x="353" y="1456" type="line"/>
      <point x="311" y="1416"/>
      <point x="197" y="1365"/>
      <point x="161" y="1352" type="curve"/>
      <point x="161" y="1238" type="line"/>
      <point x="195" y="1251"/>
      <point x="288" y="1288"/>
      <point x="325" y="1312" type="curve"/>
      <point x="325" y="684" type="line"/>
      <point x="171" y="684" type="line"/>
    </contour>
  </outline>
</glyph>
